# xmcd
#
# Track frame offsets: 
#        150
#        13770
#        25482
#        41147
#        54460
#        66492
#        82575
#        94397
#        107465
#        123262
#
# Disc length: 1812 seconds
#
# Revision: 3
# Processed by: cddbd v1.5PL3 Copyright (c) Steve Scherf et al.
# Submitted via: ExactAudioCopy v0.95a3
#
DISCID=7e07120a
DTITLE=Kenny Chesney - In My Wildest Dreams
DYEAR=1994
DGENRE=Country
TTITLE0=Whatever It Takes
TTITLE1=Somebody's Callin'
TTITLE2=The Tin Man
TTITLE3=High And Dry
TTITLE4=I Finally Found Somebody
TTITLE5=When She Calls Me Baby
TTITLE6=In My Wildest Dreams
TTITLE7=I Want My Rib Back
TTITLE8=Angel Loved The Devil
TTITLE9=I'd Love To Change Your Name
EXTD=
EXTT0=
EXTT1=
EXTT2=
EXTT3=
EXTT4=
EXTT5=
EXTT6=
EXTT7=
EXTT8=
EXTT9=
PLAYORDER=
